# xmcd
#
# Track frame offsets: 
#        150
#        21552
#        36165
#
# Disc length: 656 seconds
#
# Revision: 0
# Processed by: cddbd v1.5.2PL0 Copyright (c) Steve Scherf et al.
# Submitted via: ExactAudioCopy v0.95a4
#
DISCID=21028e03
DTITLE=The Badloves - Memphis
DYEAR=1994
DGENRE=Blues
TTITLE0=Memphis
TTITLE1=Forgiven
TTITLE2=Spirit in the Sky (Demo)
EXTD=
EXTT0=
EXTT1=
EXTT2=
PLAYORDER=
